<svg version="1.1" id="Layer_1" xmlns="http://www.w3.org/2000/svg" xmlns:xlink="http://www.w3.org/1999/xlink" x="0px" y="0px"
	 width="100%" viewBox="0 0 1080 1080" enable-background="new 0 0 1080 1080" xml:space="preserve">
<path fill="#FFFFFF" opacity="1.000000" stroke="none" 
	d="
M569.000000,1081.000000 
	C379.355164,1081.000000 190.210327,1081.000000 1.032743,1081.000000 
	C1.032743,721.063354 1.032743,361.126740 1.032743,1.095056 
	C360.895081,1.095056 720.790161,1.095056 1080.842651,1.095056 
	C1080.842651,360.999939 1080.842651,720.999939 1080.842651,1081.000000 
	C910.459656,1081.000000 739.979797,1081.000000 569.000000,1081.000000 
M499.500000,961.163208 
	C600.990479,961.163208 702.480957,961.193115 803.971313,961.089355 
	C810.087463,961.083130 816.414490,960.826782 822.282532,959.299866 
	C852.540283,951.426514 870.892395,927.421387 870.898865,896.084961 
	C870.934143,724.600708 870.917114,553.116455 870.905518,381.632202 
	C870.905396,380.040009 870.735840,378.447784 870.621948,376.442932 
	C783.970520,376.442932 697.712830,376.442932 610.881226,376.442932 
	C610.881226,290.785614 610.881226,205.570343 610.881226,119.999374 
	C608.843384,119.999374 607.369873,119.999374 605.896362,119.999382 
	C495.739807,119.999405 385.583282,119.972748 275.426727,120.014351 
	C238.410492,120.028336 211.022095,147.451691 211.004868,184.379990 
	C210.981140,235.208649 210.998688,286.037323 210.998672,336.865997 
	C210.998657,522.848938 210.955154,708.831909 211.146591,894.814636 
	C211.154861,902.838440 212.178680,911.242859 214.700195,918.813538 
	C223.565521,945.430908 246.970108,961.129272 276.520386,961.147644 
	C350.513550,961.193542 424.506805,961.163086 499.500000,961.163208 
M633.448975,318.499878 
	C633.448975,330.121704 633.448975,341.743530 633.448975,353.540161 
	C712.559143,353.540161 791.059631,353.540161 870.618774,353.540161 
	C791.432251,275.546722 712.934998,198.232208 633.449280,119.944138 
	C633.449280,186.674637 633.449280,252.087234 633.448975,318.499878 
z"/>
<path fill="#2044E0" opacity="1.000000" stroke="none" 
	d="
M499.000000,961.163208 
	C424.506805,961.163086 350.513550,961.193542 276.520386,961.147644 
	C246.970108,961.129272 223.565521,945.430908 214.700195,918.813538 
	C212.178680,911.242859 211.154861,902.838440 211.146591,894.814636 
	C210.955154,708.831909 210.998657,522.848938 210.998672,336.865997 
	C210.998688,286.037323 210.981140,235.208649 211.004868,184.379990 
	C211.022095,147.451691 238.410492,120.028336 275.426727,120.014351 
	C385.583282,119.972748 495.739807,119.999405 605.896362,119.999382 
	C607.369873,119.999374 608.843384,119.999374 610.881226,119.999374 
	C610.881226,205.570343 610.881226,290.785614 610.881226,376.442932 
	C697.712830,376.442932 783.970520,376.442932 870.621948,376.442932 
	C870.735840,378.447784 870.905396,380.040009 870.905518,381.632202 
	C870.917114,553.116455 870.934143,724.600708 870.898865,896.084961 
	C870.892395,927.421387 852.540283,951.426514 822.282532,959.299866 
	C816.414490,960.826782 810.087463,961.083130 803.971313,961.089355 
	C702.480957,961.193115 600.990479,961.163208 499.000000,961.163208 
M706.930176,693.354614 
	C710.591125,677.034058 712.269348,660.610962 711.214294,643.812439 
	C708.863892,606.389526 696.475891,572.824768 672.201660,544.302063 
	C630.863953,495.729401 577.823120,475.773865 514.894287,484.428070 
	C472.729065,490.226807 437.965576,510.745544 410.151184,543.142700 
	C364.359802,596.478760 356.911774,677.004517 392.436249,737.770935 
	C428.958527,800.244080 495.128693,832.306335 567.054749,821.877197 
	C602.359192,816.758057 632.841064,801.192078 658.684143,776.718872 
	C682.739990,753.938232 698.510742,726.209595 706.930176,693.354614 
M353.500122,225.556747 
	C327.244507,225.556747 300.988892,225.556747 274.519531,225.556747 
	C274.519531,233.363693 274.519531,240.583023 274.519531,247.810272 
	C338.839111,247.810272 402.832977,247.810272 466.734894,247.810272 
	C466.734894,240.231628 466.734894,233.005753 466.734894,225.556427 
	C429.069427,225.556427 391.784790,225.556427 353.500122,225.556747 
M416.500000,365.157867 
	C433.249817,365.157867 449.999664,365.157867 466.782410,365.157867 
	C466.782410,357.312653 466.782410,350.080750 466.782410,342.798553 
	C402.566223,342.798553 338.684875,342.798553 274.498718,342.798553 
	C274.498718,350.260620 274.498718,357.481781 274.498718,365.157898 
	C321.678986,365.157898 368.589478,365.157898 416.500000,365.157867 
z"/>
<path fill="#2145E0" opacity="1.000000" stroke="none" 
	d="
M633.449097,317.999878 
	C633.449280,252.087234 633.449280,186.674637 633.449280,119.944138 
	C712.934998,198.232208 791.432251,275.546722 870.618774,353.540161 
	C791.059631,353.540161 712.559143,353.540161 633.448975,353.540161 
	C633.448975,341.743530 633.448975,330.121704 633.449097,317.999878 
z"/>
<path fill="#FEFEFF" opacity="1.000000" stroke="none" 
	d="
M706.850342,693.760620 
	C698.510742,726.209595 682.739990,753.938232 658.684143,776.718872 
	C632.841064,801.192078 602.359192,816.758057 567.054749,821.877197 
	C495.128693,832.306335 428.958527,800.244080 392.436249,737.770935 
	C356.911774,677.004517 364.359802,596.478760 410.151184,543.142700 
	C437.965576,510.745544 472.729065,490.226807 514.894287,484.428070 
	C577.823120,475.773865 630.863953,495.729401 672.201660,544.302063 
	C696.475891,572.824768 708.863892,606.389526 711.214294,643.812439 
	C712.269348,660.610962 710.591125,677.034058 706.850342,693.760620 
M595.388367,709.821594 
	C599.861450,702.087646 601.830261,693.874268 600.458008,684.919250 
	C598.555725,672.506104 592.029968,663.059753 582.075012,655.764343 
	C570.090332,646.981323 556.476318,643.223816 541.800720,643.209717 
	C533.337646,643.201599 525.158264,642.177429 517.653137,638.099121 
	C510.219818,634.059753 503.869202,628.832214 503.796051,619.487793 
	C503.722900,610.145325 509.610382,604.346191 517.466858,600.957153 
	C523.154968,598.503540 529.415710,596.356201 535.514099,596.072754 
	C551.642639,595.323059 567.821838,595.659729 583.980835,595.566956 
	C585.759766,595.556763 587.538818,595.565674 589.446289,595.565674 
	C589.446289,587.658325 589.446289,580.425842 589.446289,572.574707 
	C576.908264,572.574707 564.687073,572.574707 552.076050,572.574707 
	C552.076050,560.519287 552.076050,549.081604 552.076050,537.525818 
	C544.448486,537.525818 537.241394,537.525818 529.724426,537.525818 
	C529.724426,548.380981 529.639465,558.866638 529.778442,569.349365 
	C529.817749,572.320557 528.946472,573.274841 525.899292,574.293579 
	C517.308289,577.165649 508.442200,579.971619 500.732147,584.562927 
	C485.132812,593.852234 477.886841,611.728821 482.081665,628.365173 
	C485.706970,642.743042 495.429901,652.280823 508.284790,658.767456 
	C518.553406,663.949097 529.588867,666.088989 541.106140,666.037292 
	C552.385681,665.986633 563.049866,668.307739 571.539673,676.326965 
	C580.750000,685.026733 580.503662,695.679688 571.115662,704.112061 
	C563.451843,710.995667 554.176208,713.862610 544.060486,713.957520 
	C528.566223,714.102905 513.069641,713.995728 497.574005,713.995789 
	C495.831848,713.995789 494.089691,713.995850 492.517822,713.995850 
	C492.517822,722.046326 492.517822,729.289795 492.517822,736.951660 
	C504.982422,736.951660 517.079590,736.951660 529.692871,736.951660 
	C529.692871,747.777588 529.692871,758.180298 529.692871,768.685547 
	C537.453613,768.685547 544.682800,768.685547 552.219727,768.685547 
	C552.219727,757.744995 552.219727,747.119080 552.219727,736.176636 
	C569.934875,733.103577 585.092712,726.048035 595.388367,709.821594 
z"/>
<path fill="#FFFFFF" opacity="1.000000" stroke="none" 
	d="
M354.000122,225.556580 
	C391.784790,225.556427 429.069427,225.556427 466.734894,225.556427 
	C466.734894,233.005753 466.734894,240.231628 466.734894,247.810272 
	C402.832977,247.810272 338.839111,247.810272 274.519531,247.810272 
	C274.519531,240.583023 274.519531,233.363693 274.519531,225.556747 
	C300.988892,225.556747 327.244507,225.556747 354.000122,225.556580 
z"/>
<path fill="#FFFFFF" opacity="1.000000" stroke="none" 
	d="
M416.000000,365.157898 
	C368.589478,365.157898 321.678986,365.157898 274.498718,365.157898 
	C274.498718,357.481781 274.498718,350.260620 274.498718,342.798553 
	C338.684875,342.798553 402.566223,342.798553 466.782410,342.798553 
	C466.782410,350.080750 466.782410,357.312653 466.782410,365.157867 
	C449.999664,365.157867 433.249817,365.157867 416.000000,365.157898 
z"/>
<path fill="#2346E0" opacity="1.000000" stroke="none" 
	d="
M595.202637,710.138245 
	C585.092712,726.048035 569.934875,733.103577 552.219727,736.176636 
	C552.219727,747.119080 552.219727,757.744995 552.219727,768.685547 
	C544.682800,768.685547 537.453613,768.685547 529.692871,768.685547 
	C529.692871,758.180298 529.692871,747.777588 529.692871,736.951660 
	C517.079590,736.951660 504.982422,736.951660 492.517822,736.951660 
	C492.517822,729.289795 492.517822,722.046326 492.517822,713.995850 
	C494.089691,713.995850 495.831848,713.995789 497.574005,713.995789 
	C513.069641,713.995728 528.566223,714.102905 544.060486,713.957520 
	C554.176208,713.862610 563.451843,710.995667 571.115662,704.112061 
	C580.503662,695.679688 580.750000,685.026733 571.539673,676.326965 
	C563.049866,668.307739 552.385681,665.986633 541.106140,666.037292 
	C529.588867,666.088989 518.553406,663.949097 508.284790,658.767456 
	C495.429901,652.280823 485.706970,642.743042 482.081665,628.365173 
	C477.886841,611.728821 485.132812,593.852234 500.732147,584.562927 
	C508.442200,579.971619 517.308289,577.165649 525.899292,574.293579 
	C528.946472,573.274841 529.817749,572.320557 529.778442,569.349365 
	C529.639465,558.866638 529.724426,548.380981 529.724426,537.525818 
	C537.241394,537.525818 544.448486,537.525818 552.076050,537.525818 
	C552.076050,549.081604 552.076050,560.519287 552.076050,572.574707 
	C564.687073,572.574707 576.908264,572.574707 589.446289,572.574707 
	C589.446289,580.425842 589.446289,587.658325 589.446289,595.565674 
	C587.538818,595.565674 585.759766,595.556763 583.980835,595.566956 
	C567.821838,595.659729 551.642639,595.323059 535.514099,596.072754 
	C529.415710,596.356201 523.154968,598.503540 517.466858,600.957153 
	C509.610382,604.346191 503.722900,610.145325 503.796051,619.487793 
	C503.869202,628.832214 510.219818,634.059753 517.653137,638.099121 
	C525.158264,642.177429 533.337646,643.201599 541.800720,643.209717 
	C556.476318,643.223816 570.090332,646.981323 582.075012,655.764343 
	C592.029968,663.059753 598.555725,672.506104 600.458008,684.919250 
	C601.830261,693.874268 599.861450,702.087646 595.202637,710.138245 
z"/>
</svg>